<svg width="32" height="32" viewBox="0 0 32 32" fill="none" xmlns="http://www.w3.org/2000/svg">
<path d="M28 13H4C3.60218 13 3.22064 12.842 2.93934 12.5607C2.65804 12.2794 2.5 11.8978 2.5 11.5C2.5 11.1022 2.65804 10.7206 2.93934 10.4393C3.22064 10.158 3.60218 10 4 10H28C28.3978 10 28.7794 10.158 29.0607 10.4393C29.342 10.7206 29.5 11.1022 29.5 11.5C29.5 11.8978 29.342 12.2794 29.0607 12.5607C28.7794 12.842 28.3978 13 28 13ZM18 22H4C3.60218 22 3.22064 21.842 2.93934 21.5607C2.65804 21.2794 2.5 20.8978 2.5 20.5C2.5 20.1022 2.65804 19.7206 2.93934 19.4393C3.22064 19.158 3.60218 19 4 19H18C18.3978 19 18.7794 19.158 19.0607 19.4393C19.342 19.7206 19.5 20.1022 19.5 20.5C19.5 20.8978 19.342 21.2794 19.0607 21.5607C18.7794 21.842 18.3978 22 18 22Z" fill="#424241"/>
</svg>
