<svg width="113" height="25" viewBox="0 0 113 25" fill="none" xmlns="http://www.w3.org/2000/svg">
<path d="M0 5.89844H3.91406L6.38672 13.2695C6.46484 13.5039 6.53125 13.7422 6.58594 13.9844C6.64062 14.2266 6.6875 14.4766 6.72656 14.7344C6.76562 14.9922 6.79688 15.2617 6.82031 15.543H6.89062C6.9375 15.1211 7 14.7266 7.07812 14.3594C7.16406 13.9922 7.26953 13.6289 7.39453 13.2695L9.82031 5.89844H13.6523L8.10938 20.6758C7.77344 21.582 7.33594 22.3359 6.79688 22.9375C6.25781 23.5469 5.63672 24.0039 4.93359 24.3086C4.23828 24.6133 3.47266 24.7656 2.63672 24.7656C2.23047 24.7656 1.87891 24.7422 1.58203 24.6953C1.28516 24.6562 1.03125 24.6133 0.820312 24.5664V21.7305C0.984375 21.7695 1.19141 21.8047 1.44141 21.8359C1.69141 21.8672 1.95312 21.8828 2.22656 21.8828C2.72656 21.8828 3.15625 21.7773 3.51562 21.5664C3.875 21.3555 4.17578 21.0703 4.41797 20.7109C4.66016 20.3594 4.85156 19.9727 4.99219 19.5508L5.20312 18.9062L0 5.89844ZM20.8594 19.2344C19.5625 19.2344 18.457 19 17.543 18.5312C16.6289 18.0547 15.9336 17.3203 15.457 16.3281C14.9805 15.3359 14.7422 14.0664 14.7422 12.5195C14.7422 10.918 15.0117 9.61328 15.5508 8.60547C16.0977 7.58984 16.8516 6.84375 17.8125 6.36719C18.7812 5.89062 19.9023 5.65234 21.1758 5.65234C22.082 5.65234 22.8633 5.74219 23.5195 5.92188C24.1836 6.09375 24.7617 6.30078 25.2539 6.54297L24.1992 9.30859C23.6367 9.08203 23.1133 8.89844 22.6289 8.75781C22.1445 8.60938 21.6602 8.53516 21.1758 8.53516C20.5508 8.53516 20.0312 8.68359 19.6172 8.98047C19.2031 9.26953 18.8945 9.70703 18.6914 10.293C18.4883 10.8789 18.3867 11.6133 18.3867 12.4961C18.3867 13.3633 18.4961 14.082 18.7148 14.6523C18.9336 15.2227 19.25 15.6484 19.6641 15.9297C20.0781 16.2031 20.582 16.3398 21.1758 16.3398C21.918 16.3398 22.5781 16.2422 23.1562 16.0469C23.7344 15.8438 24.2969 15.5625 24.8438 15.2031V18.2617C24.2969 18.6055 23.7227 18.8516 23.1211 19C22.5273 19.1562 21.7734 19.2344 20.8594 19.2344ZM33.293 5.65234C34.5039 5.65234 35.5469 5.88672 36.4219 6.35547C37.2969 6.81641 37.9727 7.48828 38.4492 8.37109C38.9258 9.25391 39.1641 10.332 39.1641 11.6055V13.3398H30.7148C30.7539 14.3477 31.0547 15.1406 31.6172 15.7188C32.1875 16.2891 32.9766 16.5742 33.9844 16.5742C34.8203 16.5742 35.5859 16.4883 36.2812 16.3164C36.9766 16.1445 37.6914 15.8867 38.4258 15.543V18.3086C37.7773 18.6289 37.0977 18.8633 36.3867 19.0117C35.6836 19.1602 34.8281 19.2344 33.8203 19.2344C32.5078 19.2344 31.3438 18.9922 30.3281 18.5078C29.3203 18.0234 28.5273 17.2852 27.9492 16.293C27.3789 15.3008 27.0938 14.0508 27.0938 12.543C27.0938 11.0117 27.3516 9.73828 27.8672 8.72266C28.3906 7.69922 29.1172 6.93359 30.0469 6.42578C30.9766 5.91016 32.0586 5.65234 33.293 5.65234ZM33.3164 8.19531C32.6211 8.19531 32.043 8.41797 31.582 8.86328C31.1289 9.30859 30.8672 10.0078 30.7969 10.9609H35.8125C35.8047 10.4297 35.707 9.95703 35.5195 9.54297C35.3398 9.12891 35.0664 8.80078 34.6992 8.55859C34.3398 8.31641 33.8789 8.19531 33.3164 8.19531ZM51.1875 19H40.8398V16.8906L46.9102 8.62891H41.2031V5.89844H50.9766V8.21875L45.0703 16.2695H51.1875V19ZM62.9062 19H52.5586V16.8906L58.6289 8.62891H52.9219V5.89844H62.6953V8.21875L56.7891 16.2695H62.9062V19ZM69.6562 19.2344C68.1953 19.2344 67.0039 18.6641 66.082 17.5234C65.168 16.375 64.7109 14.6914 64.7109 12.4727C64.7109 10.2305 65.1758 8.53516 66.1055 7.38672C67.0352 6.23047 68.25 5.65234 69.75 5.65234C70.375 5.65234 70.9258 5.73828 71.4023 5.91016C71.8789 6.08203 72.2891 6.3125 72.6328 6.60156C72.9844 6.89062 73.2812 7.21484 73.5234 7.57422H73.6406C73.5938 7.32422 73.5352 6.95703 73.4648 6.47266C73.4023 5.98047 73.3711 5.47656 73.3711 4.96094V0.765625H76.957V19H74.2148L73.5234 17.3008H73.3711C73.1445 17.6602 72.8594 17.9883 72.5156 18.2852C72.1797 18.5742 71.7773 18.8047 71.3086 18.9766C70.8398 19.1484 70.2891 19.2344 69.6562 19.2344ZM70.9102 16.3867C71.8867 16.3867 72.5742 16.0977 72.9727 15.5195C73.3789 14.9336 73.5938 14.0547 73.6172 12.8828V12.4961C73.6172 11.2227 73.4219 10.25 73.0312 9.57812C72.6406 8.89844 71.9141 8.55859 70.8516 8.55859C70.0625 8.55859 69.4453 8.89844 69 9.57812C68.5547 10.2578 68.332 11.2383 68.332 12.5195C68.332 13.8008 68.5547 14.7656 69 15.4141C69.4531 16.0625 70.0898 16.3867 70.9102 16.3867ZM86.0977 5.65234C87.3086 5.65234 88.3516 5.88672 89.2266 6.35547C90.1016 6.81641 90.7773 7.48828 91.2539 8.37109C91.7305 9.25391 91.9688 10.332 91.9688 11.6055V13.3398H83.5195C83.5586 14.3477 83.8594 15.1406 84.4219 15.7188C84.9922 16.2891 85.7812 16.5742 86.7891 16.5742C87.625 16.5742 88.3906 16.4883 89.0859 16.3164C89.7812 16.1445 90.4961 15.8867 91.2305 15.543V18.3086C90.582 18.6289 89.9023 18.8633 89.1914 19.0117C88.4883 19.1602 87.6328 19.2344 86.625 19.2344C85.3125 19.2344 84.1484 18.9922 83.1328 18.5078C82.125 18.0234 81.332 17.2852 80.7539 16.293C80.1836 15.3008 79.8984 14.0508 79.8984 12.543C79.8984 11.0117 80.1562 9.73828 80.6719 8.72266C81.1953 7.69922 81.9219 6.93359 82.8516 6.42578C83.7812 5.91016 84.8633 5.65234 86.0977 5.65234ZM86.1211 8.19531C85.4258 8.19531 84.8477 8.41797 84.3867 8.86328C83.9336 9.30859 83.6719 10.0078 83.6016 10.9609H88.6172C88.6094 10.4297 88.5117 9.95703 88.3242 9.54297C88.1445 9.12891 87.8711 8.80078 87.5039 8.55859C87.1445 8.31641 86.6836 8.19531 86.1211 8.19531ZM97.9922 19L93 5.89844H96.7383L99.2695 13.3633C99.4102 13.8008 99.5195 14.2617 99.5977 14.7461C99.6836 15.2305 99.7422 15.6641 99.7734 16.0469H99.8672C99.8906 15.6328 99.9453 15.1914 100.031 14.7227C100.125 14.2539 100.246 13.8008 100.395 13.3633L102.914 5.89844H106.652L101.66 19H97.9922ZM108.035 17.3242C108.035 16.5898 108.234 16.0742 108.633 15.7773C109.039 15.4805 109.527 15.332 110.098 15.332C110.652 15.332 111.129 15.4805 111.527 15.7773C111.934 16.0742 112.137 16.5898 112.137 17.3242C112.137 18.0273 111.934 18.5352 111.527 18.8477C111.129 19.1602 110.652 19.3164 110.098 19.3164C109.527 19.3164 109.039 19.1602 108.633 18.8477C108.234 18.5352 108.035 18.0273 108.035 17.3242Z" fill="black"/>
</svg>
