<svg width="32" height="32" viewBox="0 0 32 32" fill="none" xmlns="http://www.w3.org/2000/svg">
<g clip-path="url(#clip0_1_303)">
<path fill-rule="evenodd" clip-rule="evenodd" d="M25.2166 10.2444C24.4846 8.29297 22.6195 7.00031 20.5349 7.00031C17.8509 7.00031 14.1492 7.00031 11.4652 7.00031C9.38058 7.00031 7.51544 8.29297 6.78343 10.2444C5.952 12.4615 5 15.0002 5 15.0002C5 15.0002 8.00001 15.5003 16 15.5003C24 15.5003 27.0001 15.0002 27.0001 15.0002C27.0001 15.0002 26.0481 12.4615 25.2166 10.2444Z" fill="#F4B943" fill-opacity="0.5"/>
<path fill-rule="evenodd" clip-rule="evenodd" d="M26.1532 9.89324C25.2749 7.55173 23.036 6.00006 20.5349 6.00006C17.8509 6.00006 14.1491 6.00006 11.4651 6.00006C8.96398 6.00006 6.72512 7.55173 5.84683 9.89324C5.0154 12.1103 4.0634 14.649 4.0634 14.649C3.95883 14.929 3.98454 15.2413 4.13369 15.4999C4.2834 15.7589 4.54055 15.9374 4.83541 15.9864C4.83541 15.9864 7.87998 16.5001 16 16.5001C24.12 16.5001 27.1646 15.9864 27.1646 15.9864C27.4595 15.9374 27.7166 15.7589 27.8663 15.4999C28.0155 15.2413 28.0412 14.929 27.9366 14.649L26.1532 9.89324ZM24.2806 10.5956C23.6949 9.03457 22.2023 8.00012 20.5349 8.00012C17.8509 8.00012 14.1491 8.00012 11.4651 8.00012C9.7977 8.00012 8.30513 9.03457 7.71941 10.5956L6.38512 14.1551C7.90284 14.299 10.9337 14.5 16 14.5C21.0663 14.5 24.0972 14.299 25.6149 14.1551L24.2806 10.5956Z" fill="#F77A40"/>
<path fill-rule="evenodd" clip-rule="evenodd" d="M7.5 17C6.12 17 5 18.12 5 19.5C5 20.88 6.12 22 7.5 22C8.88 22 10 20.88 10 19.5C10 18.12 8.88 17 7.5 17ZM7.5 19C7.776 19 8 19.224 8 19.5C8 19.776 7.776 20 7.5 20C7.224 20 7 19.776 7 19.5C7 19.224 7.224 19 7.5 19Z" fill="#F77A40"/>
<path fill-rule="evenodd" clip-rule="evenodd" d="M24.5 17C23.12 17 22 18.12 22 19.5C22 20.88 23.12 22 24.5 22C25.88 22 27 20.88 27 19.5C27 18.12 25.88 17 24.5 17ZM24.5 19C24.776 19 25 19.224 25 19.5C25 19.776 24.776 20 24.5 20C24.224 20 24 19.776 24 19.5C24 19.224 24.224 19 24.5 19Z" fill="#F77A40"/>
<path fill-rule="evenodd" clip-rule="evenodd" d="M13 21H19C19.552 21 20 20.552 20 20C20 19.448 19.552 19 19 19H13C12.448 19 12 19.448 12 20C12 20.552 12.448 21 13 21Z" fill="#F77A40"/>
<path fill-rule="evenodd" clip-rule="evenodd" d="M2.5005 22.057L2.005 17.0995C2.0015 17.0665 2 17.033 2 17C2 15.3445 3.3445 14 5 14C5.055 14 5.11 14.0045 5.1645 14.0135C5.1645 14.0135 8.12 14.5 16 14.5C23.88 14.5 26.8355 14.0135 26.8355 14.0135C26.89 14.0045 26.945 14 27 14C28.6555 14 30 15.3445 30 17C30 17.033 29.9985 17.0665 29.995 17.0995L29.4995 22.057C29.4695 23.6545 28.1885 24.9485 26.596 24.9985C26.244 25.0585 24.9235 25.254 22.0445 25.382C21.493 25.4065 21.0255 24.979 21.001 24.4275C20.9765 23.876 21.404 23.4085 21.9555 23.384C25.166 23.2415 26.304 23.0195 26.304 23.0195C26.3685 23.0065 26.434 23 26.5 23C27.052 23 27.5 22.552 27.5 22C27.5 21.967 27.5015 21.9335 27.505 21.9005L27.999 16.96C27.979 16.447 27.571 16.0325 27.0605 16.002C26.467 16.089 23.265 16.5 16 16.5C8.735 16.5 5.533 16.089 4.9395 16.002C4.429 16.0325 4.021 16.447 4.001 16.96L4.495 21.9005C4.4985 21.9335 4.5 21.967 4.5 22C4.5 22.552 4.948 23 5.5 23C5.566 23 5.6315 23.0065 5.696 23.0195C5.696 23.0195 8.15 23.5 16 23.5C16.705 23.5 17.3675 23.496 17.9885 23.489C18.5405 23.4825 18.9935 23.9255 19 24.4775C19.0065 25.0295 18.5635 25.4825 18.0115 25.489C17.383 25.496 16.7135 25.5 16 25.5C8.7565 25.5 5.9395 25.0895 5.4025 24.9985C3.811 24.9475 2.5305 23.654 2.5005 22.057Z" fill="#F77A40"/>
<path fill-rule="evenodd" clip-rule="evenodd" d="M5.503 23H4C3.4475 23 3 23.4475 3 24V27C3 27.5525 3.4475 28 4 28H8C8.5525 28 9 27.5525 9 27V24.2685C9 23.7445 8.595 23.309 8.072 23.271C6.351 23.147 5.696 23.0195 5.696 23.0195C5.6325 23.0065 5.568 23 5.503 23ZM5.4125 25H5V26H7V25.1905C6.1115 25.109 5.615 25.0345 5.4125 25ZM26.5 23L26.304 23.0195C26.304 23.0195 25.649 23.147 23.928 23.271C23.405 23.309 23 23.7445 23 24.2685V27C23 27.5525 23.4475 28 24 28H28C28.5525 28 29 27.5525 29 27V24C29 23.4475 28.5525 23 28 23H26.5ZM25 25.1905V26H27V25H26.5875C26.385 25.0345 25.8885 25.109 25 25.1905Z" fill="#F77A40"/>
</g>
<defs>
<clipPath id="clip0_1_303">
<rect width="32" height="32" fill="white"/>
</clipPath>
</defs>
</svg>
