<svg width="32" height="32" viewBox="0 0 32 32" fill="none" xmlns="http://www.w3.org/2000/svg">
<g clip-path="url(#clip0_1_281)">
<path fill-rule="evenodd" clip-rule="evenodd" d="M10 28.0001H18.4998C19.0519 28.0001 19.4999 28.448 19.4999 29C19.4999 29.552 19.0519 29.9999 18.4998 29.9999H8.99989C8.44776 29.9999 7.99976 29.552 7.99976 29V5.99999C7.99976 5.44799 8.44776 5.00006 8.99989 5.00006H22.9999C23.552 5.00006 24 5.44799 24 5.99999V29C24 29.552 23.552 29.9999 22.9999 29.9999H22.4998C21.9481 29.9999 21.4997 29.552 21.4997 29C21.4997 28.6303 21.7009 28.3071 21.9998 28.134V6.99991H10V28.0001Z" fill="#F77A40"/>
<path d="M24.0003 3H8.00024V6H24.0003V3Z" fill="#F4B943" fill-opacity="0.5"/>
<path fill-rule="evenodd" clip-rule="evenodd" d="M25.0003 3C25.0003 2.4475 24.5527 2 24.0003 2H8.00025C7.4478 2 7.00024 2.4475 7.00024 3V6C7.00024 6.5525 7.4478 7 8.00025 7H24.0003C24.5527 7 25.0003 6.5525 25.0003 6V3ZM9.00025 4V5H23.0003V4H9.00025Z" fill="#F77A40"/>
<path fill-rule="evenodd" clip-rule="evenodd" d="M19 23C19 22.448 18.5525 21.9998 18 21.9998H14C13.4475 21.9998 13 22.448 13 23V29C13 29.552 13.4475 30.0002 14 30.0002H18C18.5525 30.0002 19 29.552 19 29V23ZM15 24.0002V27.9998H17V24.0002H15Z" fill="#F77A40"/>
<path fill-rule="evenodd" clip-rule="evenodd" d="M19 17.5C19 17.224 18.776 17 18.5 17H17.5C17.224 17 17 17.224 17 17.5V18.5C17 18.776 17.224 19 17.5 19H18.5C18.776 19 19 18.776 19 18.5V17.5Z" fill="#F77A40"/>
<path fill-rule="evenodd" clip-rule="evenodd" d="M19 13.5C19 13.224 18.776 13 18.5 13H17.5C17.224 13 17 13.224 17 13.5V14.5C17 14.776 17.224 15 17.5 15H18.5C18.776 15 19 14.776 19 14.5V13.5Z" fill="#F77A40"/>
<path fill-rule="evenodd" clip-rule="evenodd" d="M19 9.5C19 9.224 18.776 9 18.5 9H17.5C17.224 9 17 9.224 17 9.5V10.5C17 10.776 17.224 11 17.5 11H18.5C18.776 11 19 10.776 19 10.5V9.5Z" fill="#F77A40"/>
<path fill-rule="evenodd" clip-rule="evenodd" d="M14.5 17.5C14.5 17.224 14.276 17 14 17H13C12.724 17 12.5 17.224 12.5 17.5V18.5C12.5 18.776 12.724 19 13 19H14C14.276 19 14.5 18.776 14.5 18.5V17.5Z" fill="#F77A40"/>
<path fill-rule="evenodd" clip-rule="evenodd" d="M14.5 13.5C14.5 13.224 14.276 13 14 13H13C12.724 13 12.5 13.224 12.5 13.5V14.5C12.5 14.776 12.724 15 13 15H14C14.276 15 14.5 14.776 14.5 14.5V13.5Z" fill="#F77A40"/>
<path fill-rule="evenodd" clip-rule="evenodd" d="M14.5 9.5C14.5 9.224 14.276 9 14 9H13C12.724 9 12.5 9.224 12.5 9.5V10.5C12.5 10.776 12.724 11 13 11H14C14.276 11 14.5 10.776 14.5 10.5V9.5Z" fill="#F77A40"/>
<path d="M9.00025 20.9999H5.00024V28.9999H9.00025V20.9999Z" fill="#F4B943" fill-opacity="0.5"/>
<path fill-rule="evenodd" clip-rule="evenodd" d="M10.0003 20.9999C10.0003 20.4477 9.5527 19.9999 9.00025 19.9999H5.00025C4.4478 19.9999 4.00024 20.4477 4.00024 20.9999V28.9998C4.00024 29.5521 4.4478 29.9998 5.00025 29.9998H9.00025C9.5527 29.9998 10.0003 29.5521 10.0003 28.9998V20.9999ZM6.00025 21.9999V27.9999H8.00025V21.9999H6.00025Z" fill="#F77A40"/>
<path d="M27.0002 20.9999H23.0002V28.9999H27.0002V20.9999Z" fill="#F4B943" fill-opacity="0.5"/>
<path fill-rule="evenodd" clip-rule="evenodd" d="M28.0003 20.9999C28.0003 20.4477 27.5527 19.9999 27.0003 19.9999H23.0002C22.4478 19.9999 22.0002 20.4477 22.0002 20.9999V28.9998C22.0002 29.5521 22.4478 29.9998 23.0002 29.9998H27.0003C27.5527 29.9998 28.0003 29.5521 28.0003 28.9998V20.9999ZM24.0002 21.9999V27.9999H26.0002V21.9999H24.0002Z" fill="#F77A40"/>
<path fill-rule="evenodd" clip-rule="evenodd" d="M23 22H28C28.5521 22 29 21.552 29 21C29 20.448 28.5521 20 28 20H23C22.4479 20 22 20.448 22 21C22 21.552 22.4479 22 23 22Z" fill="#F77A40"/>
<path fill-rule="evenodd" clip-rule="evenodd" d="M4 22H8.99998C9.55206 22 9.99997 21.552 9.99997 21C9.99997 20.448 9.55206 20 8.99998 20H4C3.44792 20 3 20.448 3 21C3 21.552 3.44792 22 4 22Z" fill="#F77A40"/>
<path fill-rule="evenodd" clip-rule="evenodd" d="M3 30H5C5.552 30 6 29.552 6 29C6 28.448 5.552 28 5 28H3C2.448 28 2 28.448 2 29C2 29.552 2.448 30 3 30Z" fill="#F77A40"/>
<path fill-rule="evenodd" clip-rule="evenodd" d="M27 30H29C29.552 30 30 29.552 30 29C30 28.448 29.552 28 29 28H27C26.448 28 26 28.448 26 29C26 29.552 26.448 30 27 30Z" fill="#F77A40"/>
</g>
<defs>
<clipPath id="clip0_1_281">
<rect width="32" height="32" fill="white"/>
</clipPath>
</defs>
</svg>
