<svg width="24" height="25" viewBox="0 0 24 25" fill="none" xmlns="http://www.w3.org/2000/svg">
<path d="M20.4599 10.13C20.3195 8.66892 19.8031 7.26909 18.9611 6.06682C18.119 4.86456 16.98 3.90083 15.6549 3.2695C14.3298 2.63816 12.8638 2.36072 11.3996 2.46421C9.93543 2.56769 8.52301 3.04856 7.29988 3.86C6.24908 4.56265 5.36693 5.4893 4.71682 6.57339C4.06672 7.65749 3.66478 8.87211 3.53988 10.13C3.41736 11.3797 3.57455 12.6409 4.00005 13.8223C4.42555 15.0036 5.10868 16.0755 5.99988 16.96L11.2999 22.27C11.3928 22.3637 11.5034 22.4381 11.6253 22.4889C11.7472 22.5397 11.8779 22.5658 12.0099 22.5658C12.1419 22.5658 12.2726 22.5397 12.3945 22.4889C12.5163 22.4381 12.6269 22.3637 12.7199 22.27L17.9999 16.96C18.8911 16.0755 19.5742 15.0036 19.9997 13.8223C20.4252 12.6409 20.5824 11.3797 20.4599 10.13ZM16.5999 15.55L11.9999 20.15L7.39988 15.55C6.72197 14.8721 6.20268 14.0523 5.87935 13.1498C5.55601 12.2472 5.43667 11.2842 5.52988 10.33C5.6237 9.36111 5.93164 8.42516 6.43145 7.58985C6.93126 6.75453 7.61044 6.04071 8.41988 5.5C9.48083 4.79524 10.7262 4.4193 11.9999 4.4193C13.2736 4.4193 14.5189 4.79524 15.5799 5.5C16.3869 6.03862 17.0646 6.74928 17.5642 7.58094C18.0639 8.4126 18.3732 9.34461 18.4699 10.31C18.5661 11.2674 18.4483 12.2343 18.1249 13.1406C17.8014 14.0468 17.2805 14.8698 16.5999 15.55ZM11.9999 6.5C11.1099 6.5 10.2398 6.76392 9.49982 7.25839C8.75979 7.75286 8.18302 8.45566 7.84242 9.27793C7.50183 10.1002 7.41271 11.005 7.58635 11.8779C7.75998 12.7508 8.18856 13.5526 8.8179 14.182C9.44724 14.8113 10.2491 15.2399 11.122 15.4135C11.9949 15.5872 12.8997 15.4981 13.722 15.1575C14.5442 14.8169 15.247 14.2401 15.7415 13.5001C16.236 12.76 16.4999 11.89 16.4999 11C16.4972 9.80734 16.0223 8.66428 15.1789 7.82094C14.3356 6.9776 13.1925 6.50265 11.9999 6.5ZM11.9999 13.5C11.5054 13.5 11.0221 13.3534 10.611 13.0787C10.1998 12.804 9.8794 12.4135 9.69018 11.9567C9.50096 11.4999 9.45145 10.9972 9.54792 10.5123C9.64438 10.0273 9.88248 9.58187 10.2321 9.23224C10.5817 8.88261 11.0272 8.6445 11.5122 8.54804C11.9971 8.45158 12.4998 8.50109 12.9566 8.6903C13.4134 8.87952 13.8039 9.19996 14.0786 9.61108C14.3533 10.0222 14.4999 10.5056 14.4999 11C14.4999 11.663 14.2365 12.2989 13.7676 12.7678C13.2988 13.2366 12.6629 13.5 11.9999 13.5Z" fill="#F77A40"/>
</svg>
