<svg width="60" height="61" viewBox="0 0 60 61" fill="none" xmlns="http://www.w3.org/2000/svg">
<circle cx="30" cy="30.5" r="30" fill="#F77A40"/>
<path d="M39.9199 31.8334C39.6266 31.8334 39.3199 31.74 39.0266 31.6734C38.4325 31.5425 37.8488 31.3687 37.2799 31.1534C36.6613 30.9283 35.9814 30.94 35.371 31.1862C34.7605 31.4323 34.2627 31.8955 33.9732 32.4867L33.6799 33.0867C32.3812 32.3643 31.1879 31.467 30.1332 30.42C29.0862 29.3654 28.189 28.172 27.4666 26.8734L28.0266 26.5C28.6177 26.2106 29.0809 25.7127 29.3271 25.1023C29.5732 24.4918 29.5849 23.8119 29.3599 23.1934C29.1482 22.6233 28.9745 22.0398 28.8399 21.4467C28.7732 21.1534 28.7199 20.8467 28.6799 20.54C28.518 19.6009 28.0261 18.7504 27.2927 18.1417C26.5594 17.533 25.6328 17.2062 24.6799 17.22H20.6799C20.1053 17.2146 19.5362 17.3331 19.0115 17.5674C18.4868 17.8017 18.0187 18.1463 17.6391 18.5777C17.2596 19.0092 16.9774 19.5174 16.8119 20.0676C16.6463 20.6179 16.6013 21.1974 16.6799 21.7667C17.3902 27.3525 19.9413 32.5425 23.9301 36.5169C27.9189 40.4912 33.1182 43.0234 38.7066 43.7134H39.2132C40.1964 43.7148 41.1458 43.3541 41.8799 42.7C42.3017 42.3228 42.6387 41.8603 42.8685 41.3431C43.0984 40.826 43.2158 40.2659 43.2132 39.7V35.7C43.1969 34.7739 42.8596 33.8821 42.259 33.1769C41.6584 32.4717 40.8316 31.9969 39.9199 31.8334ZM40.5866 39.8334C40.5863 40.0227 40.5458 40.2098 40.4676 40.3822C40.3894 40.5546 40.2754 40.7084 40.1332 40.8334C39.9842 40.962 39.81 41.0581 39.6218 41.1155C39.4335 41.1729 39.2353 41.1903 39.0399 41.1667C34.0464 40.5264 29.4082 38.242 25.8568 34.6737C22.3055 31.1055 20.0431 26.4565 19.4266 21.46C19.4053 21.2647 19.4239 21.0671 19.4812 20.8792C19.5385 20.6913 19.6333 20.5169 19.7599 20.3667C19.8848 20.2245 20.0386 20.1105 20.2111 20.0323C20.3835 19.9542 20.5706 19.9136 20.7599 19.9134H24.7599C25.07 19.9065 25.3727 20.0079 25.6161 20.2001C25.8594 20.3924 26.0282 20.6635 26.0932 20.9667C26.1466 21.3311 26.2132 21.6911 26.2932 22.0467C26.4472 22.7496 26.6522 23.4403 26.9066 24.1134L25.0399 24.98C24.8803 25.0533 24.7367 25.1573 24.6174 25.2862C24.4981 25.415 24.4055 25.5662 24.3448 25.731C24.2841 25.8957 24.2565 26.0709 24.2637 26.2463C24.2709 26.4218 24.3126 26.5941 24.3866 26.7534C26.3055 30.8637 29.6095 34.1678 33.7199 36.0867C34.0445 36.2201 34.4086 36.2201 34.7332 36.0867C34.8995 36.0272 35.0523 35.9353 35.1828 35.8163C35.3132 35.6973 35.4188 35.5535 35.4932 35.3934L36.3199 33.5267C37.0092 33.7732 37.7127 33.978 38.4266 34.14C38.7821 34.22 39.1421 34.2867 39.5066 34.34C39.8098 34.4051 40.0809 34.5738 40.2731 34.8172C40.4654 35.0605 40.5668 35.3633 40.5599 35.6734L40.5866 39.8334Z" fill="white"/>
</svg>
