<svg width="32" height="32" viewBox="0 0 32 32" fill="none" xmlns="http://www.w3.org/2000/svg">
<g clip-path="url(#clip0_1_274)">
<path fill-rule="evenodd" clip-rule="evenodd" d="M23.4649 12.5L25.1679 9.94548C25.2914 9.76048 25.4729 9.62147 25.6839 9.55147L28.6839 8.55147C29.0219 8.43847 29.3944 8.51448 29.6619 8.75048C29.9289 8.98598 30.0504 9.34647 29.9804 9.69597L29.0479 14.3595L29.8944 16.053C30.0869 16.438 30.0114 16.9025 29.7069 17.207L27.7069 19.207C27.5194 19.3945 27.2649 19.5 26.9999 19.5H21.9999C21.4479 19.5 20.9999 19.052 20.9999 18.5C20.9999 17.948 21.4479 17.5 21.9999 17.5H26.5859L27.7829 16.3025L27.1054 14.947C27.0059 14.7485 26.9759 14.522 27.0194 14.304L27.6814 10.9935L26.6414 11.34L24.8319 14.0545C24.6464 14.333 24.3344 14.5 23.9999 14.5H5.99992C5.85492 14.5 5.70241 14.587 5.53991 14.685C5.27291 14.8455 5.00791 15.0705 4.77091 15.3175C4.53041 15.568 4.31841 15.842 4.16792 16.105C4.08241 16.255 3.99992 16.386 3.99992 16.5C3.99992 16.7425 4.20091 16.9575 4.39791 17.1395C4.59841 17.3245 4.81642 17.5 4.99992 17.5H9.99992C10.2419 17.5 10.4759 17.588 10.6584 17.7475L18.3754 24.5H20.0569L16.1864 19.081C15.9684 18.7765 15.9394 18.3755 16.1109 18.0425C16.2819 17.7095 16.6254 17.5 16.9999 17.5H17.9999C18.5519 17.5 18.9999 17.948 18.9999 18.5C18.9999 18.768 18.8944 19.0115 18.7224 19.191L22.8134 24.919C23.0314 25.2235 23.0604 25.6245 22.8889 25.9575C22.7179 26.2905 22.3744 26.5 21.9999 26.5H17.9999C17.7579 26.5 17.5239 26.412 17.3414 26.2525L9.62441 19.5H4.99992C4.43742 19.5 3.65691 19.1765 3.04241 18.6105C2.42591 18.0415 1.99992 17.258 1.99992 16.5C1.99992 15.8275 2.52092 14.7735 3.32792 13.9325C4.13542 13.091 5.19092 12.5 5.99992 12.5H23.4649Z" fill="#F77A40"/>
<path fill-rule="evenodd" clip-rule="evenodd" d="M17 13.5L10 13.5L18 6.5L22 6.5L17 13.5Z" fill="#F4B943" fill-opacity="0.5"/>
<path fill-rule="evenodd" clip-rule="evenodd" d="M17.0001 14.5C17.3231 14.5 17.6261 14.344 17.8136 14.081L22.8136 7.081C23.0316 6.7765 23.0606 6.3755 22.8891 6.0425C22.7181 5.7095 22.3746 5.5 22.0001 5.5H18.0001C17.7581 5.5 17.5241 5.588 17.3416 5.7475L9.34156 12.7475C9.02806 13.022 8.91755 13.4615 9.06405 13.8515C9.21055 14.2415 9.58356 14.5 10.0001 14.5L17.0001 14.5ZM18.3756 7.5L12.6616 12.5L16.4856 12.5L20.0571 7.5L18.3756 7.5Z" fill="#F77A40"/>
</g>
<defs>
<clipPath id="clip0_1_274">
<rect width="32" height="32" fill="white"/>
</clipPath>
</defs>
</svg>
